# xmcd
#
# Track frame offsets:
#	150
#	15797
#	30715
#	46182
#	62655
#	78060
#	95672
#	112690
#	127052
#	143012
#	159875
#	174770
#
# Disc length: 2545 seconds
#
# Revision: 0
# Processed by: cddbd v1.4PL0 Copyright (c) Steve Scherf et al.
# Submitted via: audiograbber 1.81.01
#
DISCID=7d09ef0c
DTITLE=Claudio Villa - I grandi successi originali cd1
DYEAR=1900
DGENRE=pop
TTITLE0=Binario
TTITLE1=Addio sogni di gloria
TTITLE2=Balocchi è profumi
TTITLE3=Bocca desiderata
TTITLE4=Borgo antico
TTITLE5=Granada
TTITLE6=Buongiorno tristezza
TTITLE7=Cancello chiuso
TTITLE8=Casa mia
TTITLE9=Amor non amour my love
TTITLE10=Fili d'oro
TTITLE11=Terra straniera
EXTD=
EXTT0=
EXTT1=
EXTT2=
EXTT3=
EXTT4=
EXTT5=
EXTT6=
EXTT7=
EXTT8=
EXTT9=
EXTT10=
EXTT11=
PLAYORDER=
